<svg xmlns="http://www.w3.org/2000/svg" xmlns:xlink="http://www.w3.org/1999/xlink" width="500" zoomAndPan="magnify" viewBox="0 0 375 374.999991" height="500" preserveAspectRatio="xMidYMid meet" version="1.0"><rect x="-37.5" width="450" fill="#ffffff" y="-37.499999" height="449.999989" fill-opacity="1"/><rect x="-37.5" width="450" fill="#ffffff" y="-37.499999" height="449.999989" fill-opacity="1"/><path fill="#64bcfc" d="M 187.476562 6.742188 C 287.296875 6.742188 368.214844 87.664062 368.214844 187.480469 C 368.214844 287.296875 287.296875 368.21875 187.476562 368.21875 C 87.660156 368.21875 6.742188 287.296875 6.742188 187.480469 C 6.742188 87.664062 87.660156 6.742188 187.476562 6.742188 Z M 187.476562 -0.0117188 C 83.929688 -0.0117188 -0.0117188 83.929688 -0.0117188 187.480469 C -0.0117188 291.03125 83.929688 374.972656 187.476562 374.972656 C 291.03125 374.972656 374.972656 291.03125 374.972656 187.480469 C 374.972656 83.929688 291.03125 -0.0117188 187.476562 -0.0117188 Z M 277.34375 104.066406 L 277.34375 182.476562 L 255.242188 168.207031 L 213.457031 194.152344 L 206.425781 198.523438 L 202.3125 201.074219 L 202.3125 80.839844 L 154.824219 110.269531 L 154.824219 162 L 143.679688 154.457031 L 143.679688 104.066406 L 213.457031 60.820312 Z M 31.433594 187.480469 C 31.433594 101.296875 101.296875 31.433594 187.480469 31.433594 C 273.664062 31.433594 343.527344 101.296875 343.527344 187.480469 C 343.527344 227.304688 328.585938 263.625 304.035156 291.199219 L 304.035156 208.09375 L 255.417969 175.1875 L 202.3125 208.09375 L 202.3125 342.808594 C 197.425781 343.269531 192.484375 343.527344 187.480469 343.527344 C 182.476562 343.527344 177.53125 343.269531 172.644531 342.808594 L 172.644531 181.617188 L 124.027344 148.707031 L 70.925781 181.617188 L 70.925781 291.199219 C 46.375 263.625 31.433594 227.304688 31.433594 187.480469 Z M 79.40625 186.339844 L 115.546875 163.941406 L 115.546875 325.949219 C 102.261719 319.03125 90.105469 310.265625 79.40625 299.984375 Z M 210.792969 212.816406 L 246.9375 190.421875 L 246.9375 331.773438 C 235.503906 336.484375 223.398438 339.898438 210.792969 341.785156 Z M 15.789062 187.480469 C 15.789062 282.300781 92.65625 359.171875 187.480469 359.171875 C 282.300781 359.171875 359.171875 282.300781 359.171875 187.480469 C 359.171875 92.660156 282.300781 15.789062 187.480469 15.789062 C 92.65625 15.789062 15.789062 92.660156 15.789062 187.480469 " fill-opacity="1" fill-rule="nonzero"/></svg>